<mxfile host="app.diagrams.net" modified="2021-10-18T15:58:13.235Z" agent="5.0 (X11)" etag="ohPDazS5z8AUSWQczS5o" version="15.5.4" type="github">
  <diagram name="Page-1" id="e7e014a7-5840-1c2e-5031-d8a46d1fe8dd">
    <mxGraphModel dx="1422" dy="793" grid="1" gridSize="10" guides="1" tooltips="1" connect="1" arrows="1" fold="1" page="1" pageScale="1" pageWidth="1169" pageHeight="826" background="none" math="0" shadow="0">
      <root>
        <mxCell id="0" />
        <mxCell id="1" parent="0" />
        <mxCell id="2" value="Nhân viên" style="swimlane;whiteSpace=wrap" parent="1" vertex="1">
          <mxGeometry x="170" y="120" width="350" height="620" as="geometry" />
        </mxCell>
        <mxCell id="5" value="" style="ellipse;shape=startState;fillColor=#000000;strokeColor=#ff0000;" parent="2" vertex="1">
          <mxGeometry x="160" y="40" width="30" height="30" as="geometry" />
        </mxCell>
        <mxCell id="6" value="" style="edgeStyle=elbowEdgeStyle;elbow=horizontal;verticalAlign=bottom;endArrow=open;endSize=8;strokeColor=#FF0000;endFill=1;rounded=0" parent="2" source="5" target="7" edge="1">
          <mxGeometry x="100" y="40" as="geometry">
            <mxPoint x="115" y="110" as="targetPoint" />
          </mxGeometry>
        </mxCell>
        <mxCell id="7" value="Chọn đăng nhập" style="" parent="2" vertex="1">
          <mxGeometry x="120" y="110" width="110" height="50" as="geometry" />
        </mxCell>
        <mxCell id="8" value="Nhập tên tài khoản, mặt khẩu  " style="" parent="2" vertex="1">
          <mxGeometry x="92.75" y="240" width="164.5" height="68" as="geometry" />
        </mxCell>
        <mxCell id="10" value="Chọn đăng nhập" style="" parent="2" vertex="1">
          <mxGeometry x="120" y="355" width="110" height="50" as="geometry" />
        </mxCell>
        <mxCell id="11" value="" style="endArrow=open;strokeColor=#FF0000;endFill=1;rounded=0" parent="2" source="8" target="10" edge="1">
          <mxGeometry relative="1" as="geometry" />
        </mxCell>
        <mxCell id="3" value="Hệ thống quản lý cafe gió" style="swimlane;whiteSpace=wrap" parent="1" vertex="1">
          <mxGeometry x="520" y="120" width="510" height="620" as="geometry" />
        </mxCell>
        <mxCell id="15" value="Hiển thị form đăng nhập" style="" parent="3" vertex="1">
          <mxGeometry x="185" y="110" width="140" height="50" as="geometry" />
        </mxCell>
        <mxCell id="21" value="" style="rhombus;fillColor=#ffffc0;strokeColor=#ff0000;" parent="3" vertex="1">
          <mxGeometry x="225.25" y="360" width="59.5" height="40" as="geometry" />
        </mxCell>
        <mxCell id="30" value="Thông báo tài khoản hoặc mật khẩu không hợp lệ" style="" parent="3" vertex="1">
          <mxGeometry x="107.63" y="220" width="294.75" height="60" as="geometry" />
        </mxCell>
        <mxCell id="O3DKbyC12I7JEmikR3Yd-48" value="" style="endArrow=open;strokeColor=#FF0000;endFill=1;rounded=0;entryX=0.5;entryY=1;entryDx=0;entryDy=0;exitX=0.5;exitY=0;exitDx=0;exitDy=0;" edge="1" parent="3" source="21" target="30">
          <mxGeometry relative="1" as="geometry">
            <mxPoint x="165" y="162" as="sourcePoint" />
            <mxPoint x="-142.75" y="244" as="targetPoint" />
          </mxGeometry>
        </mxCell>
        <mxCell id="O3DKbyC12I7JEmikR3Yd-49" value="false " style="edgeLabel;html=1;align=center;verticalAlign=middle;resizable=0;points=[];" vertex="1" connectable="0" parent="O3DKbyC12I7JEmikR3Yd-48">
          <mxGeometry x="-0.6027" y="-4" relative="1" as="geometry">
            <mxPoint as="offset" />
          </mxGeometry>
        </mxCell>
        <mxCell id="O3DKbyC12I7JEmikR3Yd-51" value="Hiển thị các chức năng được quản lý " style="" vertex="1" parent="3">
          <mxGeometry x="148.82" y="470" width="212.37" height="50" as="geometry" />
        </mxCell>
        <mxCell id="O3DKbyC12I7JEmikR3Yd-50" value="true" style="endArrow=open;strokeColor=#FF0000;endFill=1;rounded=0;exitX=0.5;exitY=1;exitDx=0;exitDy=0;entryX=0.5;entryY=0;entryDx=0;entryDy=0;" edge="1" parent="3" source="21" target="O3DKbyC12I7JEmikR3Yd-51">
          <mxGeometry relative="1" as="geometry">
            <mxPoint x="242.6300000000001" y="140" as="sourcePoint" />
            <mxPoint x="230" y="450" as="targetPoint" />
          </mxGeometry>
        </mxCell>
        <mxCell id="O3DKbyC12I7JEmikR3Yd-53" value="" style="ellipse;html=1;shape=endState;fillColor=#000000;strokeColor=#ff0000;" vertex="1" parent="3">
          <mxGeometry x="240" y="560" width="30" height="30" as="geometry" />
        </mxCell>
        <mxCell id="O3DKbyC12I7JEmikR3Yd-54" value="" style="endArrow=open;strokeColor=#FF0000;endFill=1;rounded=0;exitX=0.5;exitY=1;exitDx=0;exitDy=0;entryX=0.5;entryY=0;entryDx=0;entryDy=0;" edge="1" parent="3" source="O3DKbyC12I7JEmikR3Yd-51" target="O3DKbyC12I7JEmikR3Yd-53">
          <mxGeometry relative="1" as="geometry">
            <mxPoint x="242.6300000000001" y="410" as="sourcePoint" />
            <mxPoint x="242.625" y="470" as="targetPoint" />
          </mxGeometry>
        </mxCell>
        <mxCell id="O3DKbyC12I7JEmikR3Yd-64" value="" style="endArrow=open;strokeColor=#FF0000;endFill=1;rounded=0;entryX=0.5;entryY=1;entryDx=0;entryDy=0;exitX=0.5;exitY=0;exitDx=0;exitDy=0;" edge="1" parent="3" source="30" target="15">
          <mxGeometry relative="1" as="geometry">
            <mxPoint x="265" y="170" as="sourcePoint" />
            <mxPoint x="-82.75" y="284" as="targetPoint" />
          </mxGeometry>
        </mxCell>
        <mxCell id="20" value="" style="endArrow=open;strokeColor=#FF0000;endFill=1;rounded=0;entryX=0;entryY=0.5;entryDx=0;entryDy=0;" parent="1" source="10" target="21" edge="1">
          <mxGeometry relative="1" as="geometry">
            <mxPoint x="470" y="475.72916666666674" as="targetPoint" />
          </mxGeometry>
        </mxCell>
        <mxCell id="O3DKbyC12I7JEmikR3Yd-44" value="&lt;div&gt;Kiểm tra thông tin đăng nhập&lt;/div&gt;" style="edgeLabel;html=1;align=center;verticalAlign=middle;resizable=0;points=[];" vertex="1" connectable="0" parent="20">
          <mxGeometry x="-0.2185" y="-4" relative="1" as="geometry">
            <mxPoint y="-6" as="offset" />
          </mxGeometry>
        </mxCell>
        <mxCell id="9" value="" style="endArrow=open;strokeColor=#FF0000;endFill=1;rounded=0;entryX=0;entryY=0.5;entryDx=0;entryDy=0;" parent="1" source="7" target="15" edge="1">
          <mxGeometry relative="1" as="geometry" />
        </mxCell>
        <mxCell id="17" value="" style="endArrow=open;strokeColor=#FF0000;endFill=1;rounded=0;entryX=1;entryY=0.5;entryDx=0;entryDy=0;exitX=0.5;exitY=1;exitDx=0;exitDy=0;" parent="1" source="15" target="8" edge="1">
          <mxGeometry relative="1" as="geometry" />
        </mxCell>
      </root>
    </mxGraphModel>
  </diagram>
</mxfile>
